<mxfile host="65bd71144e">
    <diagram id="fauki0Zlmw-hDNIveIyl" name="Page-1">
        <mxGraphModel dx="3911" dy="1146" grid="0" gridSize="10" guides="1" tooltips="1" connect="1" arrows="1" fold="1" page="0" pageScale="1" pageWidth="827" pageHeight="1169" math="0" shadow="0">
            <root>
                <mxCell id="0"/>
                <mxCell id="1" parent="0"/>
                <mxCell id="2" value="" style="rounded=0;whiteSpace=wrap;html=1;fontSize=18;fillColor=#292929;" vertex="1" parent="1">
                    <mxGeometry x="-474" y="248" width="1706" height="878" as="geometry"/>
                </mxCell>
                <mxCell id="3" style="edgeStyle=none;html=1;fontColor=#FFFFFF;entryX=1;entryY=0.25;entryDx=0;entryDy=0;dashed=1;dashPattern=1 1;" edge="1" parent="1" target="30">
                    <mxGeometry relative="1" as="geometry">
                        <mxPoint x="698" y="610" as="targetPoint"/>
                        <mxPoint x="802" y="616" as="sourcePoint"/>
                        <Array as="points">
                            <mxPoint x="730" y="616"/>
                            <mxPoint x="730" y="592"/>
                        </Array>
                    </mxGeometry>
                </mxCell>
                <mxCell id="4" style="edgeStyle=none;html=1;entryX=1;entryY=0.5;entryDx=0;entryDy=0;fontColor=#FFFFFF;dashed=1;dashPattern=1 1;" edge="1" parent="1" target="24">
                    <mxGeometry relative="1" as="geometry">
                        <mxPoint x="804.0000000000009" y="782.0000000000005" as="sourcePoint"/>
                        <Array as="points">
                            <mxPoint x="746" y="782"/>
                            <mxPoint x="746" y="864"/>
                        </Array>
                    </mxGeometry>
                </mxCell>
                <mxCell id="5" style="edgeStyle=none;html=1;entryX=1;entryY=0.25;entryDx=0;entryDy=0;fontColor=#FFFFFF;dashed=1;dashPattern=1 1;" edge="1" parent="1" target="18">
                    <mxGeometry relative="1" as="geometry">
                        <mxPoint x="800" y="363" as="sourcePoint"/>
                    </mxGeometry>
                </mxCell>
                <mxCell id="6" style="edgeStyle=none;html=1;exitX=0.5;exitY=1;exitDx=0;exitDy=0;fontColor=#FFFFFF;entryX=0.5;entryY=1;entryDx=0;entryDy=0;dashed=1;dashPattern=1 2;" edge="1" parent="1" source="8" target="10">
                    <mxGeometry relative="1" as="geometry">
                        <Array as="points">
                            <mxPoint x="909" y="1024"/>
                            <mxPoint x="-5" y="1024"/>
                        </Array>
                    </mxGeometry>
                </mxCell>
                <mxCell id="7" style="edgeStyle=none;html=1;exitX=0.004;exitY=0.19;exitDx=0;exitDy=0;entryX=1;entryY=0.5;entryDx=0;entryDy=0;fontColor=#FFFFFF;exitPerimeter=0;dashed=1;dashPattern=1 1;" edge="1" parent="1" source="8" target="9">
                    <mxGeometry relative="1" as="geometry">
                        <Array as="points">
                            <mxPoint x="242" y="439"/>
                            <mxPoint x="242" y="640"/>
                        </Array>
                    </mxGeometry>
                </mxCell>
                <mxCell id="8" value="" style="rounded=0;whiteSpace=wrap;html=1;fontSize=18;strokeColor=#004C99;strokeWidth=3;fillColor=#6666FF;" vertex="1" parent="1">
                    <mxGeometry x="793" y="316" width="336" height="637" as="geometry"/>
                </mxCell>
                <mxCell id="9" value="" style="rounded=0;whiteSpace=wrap;html=1;fillColor=#99FF99;strokeColor=#009900;strokeWidth=3;fontSize=18;" vertex="1" parent="1">
                    <mxGeometry x="-215" y="547" width="420" height="185" as="geometry"/>
                </mxCell>
                <mxCell id="10" value="" style="rounded=0;whiteSpace=wrap;html=1;fillColor=#CCFFFF;strokeColor=#009999;strokeWidth=3;fontSize=18;" vertex="1" parent="1">
                    <mxGeometry x="-215" y="777" width="420" height="180" as="geometry"/>
                </mxCell>
                <mxCell id="11" value="&lt;font style=&quot;font-size: 18px&quot; color=&quot;#000000&quot;&gt;resetPassword&lt;/font&gt;" style="rounded=1;whiteSpace=wrap;html=1;strokeColor=#007FFF;dashed=1;strokeWidth=2;fillColor=#FFFFFF;" vertex="1" parent="1">
                    <mxGeometry x="-80" y="839.5" width="150" height="55" as="geometry"/>
                </mxCell>
                <mxCell id="12" value="Domain" style="text;html=1;strokeColor=none;fillColor=none;align=center;verticalAlign=middle;whiteSpace=wrap;rounded=0;fontSize=18;" vertex="1" parent="1">
                    <mxGeometry x="140" y="744" width="60" height="30" as="geometry"/>
                </mxCell>
                <mxCell id="13" style="edgeStyle=orthogonalEdgeStyle;rounded=0;orthogonalLoop=1;jettySize=auto;html=1;exitX=0.5;exitY=1;exitDx=0;exitDy=0;fontSize=18;strokeWidth=3;fillColor=#d5e8d4;strokeColor=#009900;dashed=1;dashPattern=1 1;endArrow=block;endFill=1;" edge="1" parent="1" source="15" target="11">
                    <mxGeometry relative="1" as="geometry"/>
                </mxCell>
                <mxCell id="14" style="edgeStyle=orthogonalEdgeStyle;rounded=0;orthogonalLoop=1;jettySize=auto;html=1;exitX=0;exitY=0.5;exitDx=0;exitDy=0;fontSize=18;strokeColor=#009900;strokeWidth=3;dashed=1;dashPattern=1 1;endArrow=block;endFill=1;" edge="1" parent="1" source="15" target="17">
                    <mxGeometry relative="1" as="geometry"/>
                </mxCell>
                <mxCell id="15" value="&lt;font style=&quot;font-size: 18px&quot; color=&quot;#000000&quot;&gt;RemoteResetPassword&lt;/font&gt;" style="rounded=0;whiteSpace=wrap;html=1;strokeColor=#3B522E;strokeWidth=3;fillColor=#FFFFFF;" vertex="1" parent="1">
                    <mxGeometry x="-22" y="613.25" width="215" height="56.25" as="geometry"/>
                </mxCell>
                <mxCell id="16" value="Data&lt;br&gt;" style="text;html=1;strokeColor=none;fillColor=none;align=center;verticalAlign=middle;whiteSpace=wrap;rounded=0;fontSize=18;" vertex="1" parent="1">
                    <mxGeometry x="142" y="514" width="60" height="30" as="geometry"/>
                </mxCell>
                <mxCell id="17" value="&lt;font style=&quot;font-size: 18px&quot; color=&quot;#000000&quot;&gt;HttpPostClient&lt;/font&gt;" style="rounded=1;whiteSpace=wrap;html=1;strokeColor=#009900;dashed=1;strokeWidth=2;fillColor=#FFFFFF;" vertex="1" parent="1">
                    <mxGeometry x="-199" y="613.25" width="150" height="55" as="geometry"/>
                </mxCell>
                <mxCell id="18" value="" style="rounded=0;whiteSpace=wrap;html=1;fillColor=#FF99CC;strokeColor=#99004D;strokeWidth=3;fontSize=18;" vertex="1" parent="1">
                    <mxGeometry x="-215" y="317" width="420" height="185" as="geometry"/>
                </mxCell>
                <mxCell id="19" style="edgeStyle=orthogonalEdgeStyle;rounded=0;orthogonalLoop=1;jettySize=auto;html=1;exitX=0;exitY=0.5;exitDx=0;exitDy=0;fontSize=18;strokeColor=#B5739D;strokeWidth=2;endArrow=open;endFill=0;sourcePerimeterSpacing=0;startSize=6;" edge="1" parent="1" source="21" target="23">
                    <mxGeometry relative="1" as="geometry"/>
                </mxCell>
                <mxCell id="20" style="edgeStyle=orthogonalEdgeStyle;rounded=0;orthogonalLoop=1;jettySize=auto;html=1;exitX=0.5;exitY=1;exitDx=0;exitDy=0;fontSize=18;strokeColor=#B5739D;strokeWidth=3;dashed=1;dashPattern=1 1;endArrow=block;endFill=1;" edge="1" parent="1" source="21" target="17">
                    <mxGeometry relative="1" as="geometry"/>
                </mxCell>
                <mxCell id="21" value="&lt;font style=&quot;font-size: 18px&quot; color=&quot;#000000&quot;&gt;AxiosHttpClient&lt;/font&gt;" style="rounded=0;whiteSpace=wrap;html=1;strokeColor=#B5739D;strokeWidth=3;fillColor=#FFFFFF;" vertex="1" parent="1">
                    <mxGeometry x="-112.5" y="383.25" width="215" height="53.75" as="geometry"/>
                </mxCell>
                <mxCell id="22" value="Infra" style="text;html=1;strokeColor=none;fillColor=none;align=center;verticalAlign=middle;whiteSpace=wrap;rounded=0;fontSize=18;" vertex="1" parent="1">
                    <mxGeometry x="141" y="285" width="60" height="30" as="geometry"/>
                </mxCell>
                <mxCell id="23" value="&lt;font style=&quot;font-size: 18px&quot; color=&quot;#000000&quot;&gt;Axios&lt;/font&gt;" style="rounded=0;whiteSpace=wrap;html=1;strokeColor=#333333;fillColor=#CCCCCC;" vertex="1" parent="1">
                    <mxGeometry x="-435" y="382" width="150" height="55" as="geometry"/>
                </mxCell>
                <mxCell id="24" value="" style="rounded=0;whiteSpace=wrap;html=1;fillColor=#6600CC;strokeColor=#472966;strokeWidth=3;fontSize=18;" vertex="1" parent="1">
                    <mxGeometry x="277" y="774" width="420" height="180" as="geometry"/>
                </mxCell>
                <mxCell id="25" style="edgeStyle=orthogonalEdgeStyle;rounded=0;orthogonalLoop=1;jettySize=auto;html=1;exitX=0;exitY=0.5;exitDx=0;exitDy=0;fontSize=18;strokeColor=#CC99FF;strokeWidth=2;endArrow=open;endFill=0;startArrow=diamondThin;startFill=1;targetPerimeterSpacing=0;endSize=9;startSize=9;" edge="1" parent="1" source="27" target="11">
                    <mxGeometry relative="1" as="geometry"/>
                </mxCell>
                <mxCell id="26" style="edgeStyle=orthogonalEdgeStyle;rounded=0;orthogonalLoop=1;jettySize=auto;html=1;exitX=1;exitY=0.5;exitDx=0;exitDy=0;fontSize=18;fontColor=#FFFFFF;strokeColor=#CC99FF;strokeWidth=3;endArrow=open;endFill=0;startArrow=diamondThin;startFill=1;endSize=9;startSize=9;" edge="1" parent="1" source="27" target="29">
                    <mxGeometry relative="1" as="geometry"/>
                </mxCell>
                <mxCell id="27" value="&lt;font color=&quot;#000000&quot;&gt;&lt;span style=&quot;font-size: 18px&quot;&gt;ForgotPasswordPage&lt;/span&gt;&lt;/font&gt;" style="rounded=0;whiteSpace=wrap;html=1;strokeColor=#7F00FF;strokeWidth=2;fillColor=#FFFFFF;" vertex="1" parent="1">
                    <mxGeometry x="295" y="840" width="184" height="54.5" as="geometry"/>
                </mxCell>
                <mxCell id="28" value="Presentation" style="text;html=1;strokeColor=none;fillColor=none;align=center;verticalAlign=middle;whiteSpace=wrap;rounded=0;fontSize=18;" vertex="1" parent="1">
                    <mxGeometry x="584" y="740" width="110" height="30" as="geometry"/>
                </mxCell>
                <mxCell id="29" value="&lt;font style=&quot;font-size: 18px&quot; color=&quot;#000000&quot;&gt;Validation&lt;/font&gt;" style="rounded=1;whiteSpace=wrap;html=1;strokeColor=#7F00FF;dashed=1;strokeWidth=2;fillColor=#FFFFFF;" vertex="1" parent="1">
                    <mxGeometry x="528" y="839.5" width="150" height="55" as="geometry"/>
                </mxCell>
                <mxCell id="30" value="" style="rounded=0;whiteSpace=wrap;html=1;fillColor=#FFFF66;strokeColor=#999900;strokeWidth=3;fontSize=18;" vertex="1" parent="1">
                    <mxGeometry x="275" y="547" width="420" height="180" as="geometry"/>
                </mxCell>
                <mxCell id="31" style="edgeStyle=orthogonalEdgeStyle;rounded=0;orthogonalLoop=1;jettySize=auto;html=1;exitX=0.5;exitY=1;exitDx=0;exitDy=0;fontSize=18;fontColor=#FFFFFF;strokeColor=#CCCC00;strokeWidth=3;fillColor=#fff2cc;endArrow=block;endFill=1;dashed=1;dashPattern=1 1;entryX=0.25;entryY=0;entryDx=0;entryDy=0;" edge="1" parent="1" source="32" target="29">
                    <mxGeometry relative="1" as="geometry">
                        <Array as="points">
                            <mxPoint x="385" y="787"/>
                            <mxPoint x="565" y="787"/>
                        </Array>
                    </mxGeometry>
                </mxCell>
                <mxCell id="32" value="&lt;font style=&quot;font-size: 18px&quot; color=&quot;#000000&quot;&gt;RequiredFieldValidation&lt;/font&gt;" style="rounded=0;whiteSpace=wrap;html=1;strokeColor=#CCCC00;strokeWidth=2;fillColor=#FFFFFF;" vertex="1" parent="1">
                    <mxGeometry x="280" y="617" width="210" height="60" as="geometry"/>
                </mxCell>
                <mxCell id="33" value="Validation" style="text;html=1;strokeColor=none;fillColor=none;align=center;verticalAlign=middle;whiteSpace=wrap;rounded=0;fontSize=18;" vertex="1" parent="1">
                    <mxGeometry x="610" y="513" width="82" height="30" as="geometry"/>
                </mxCell>
                <mxCell id="34" style="edgeStyle=orthogonalEdgeStyle;rounded=0;orthogonalLoop=1;jettySize=auto;html=1;fontSize=18;fontColor=#FFFFFF;strokeColor=#CCCC00;strokeWidth=3;fillColor=#fff2cc;endArrow=block;endFill=1;dashed=1;dashPattern=1 1;" edge="1" parent="1" source="35" target="29">
                    <mxGeometry relative="1" as="geometry">
                        <Array as="points">
                            <mxPoint x="525" y="767"/>
                            <mxPoint x="594" y="767"/>
                        </Array>
                    </mxGeometry>
                </mxCell>
                <mxCell id="35" value="&lt;font style=&quot;font-size: 18px&quot; color=&quot;#000000&quot;&gt;EmailField Validation&lt;/font&gt;" style="rounded=0;whiteSpace=wrap;html=1;strokeColor=#CCCC00;strokeWidth=2;fillColor=#FFFFFF;" vertex="1" parent="1">
                    <mxGeometry x="499" y="617" width="190" height="60" as="geometry"/>
                </mxCell>
                <mxCell id="36" value="Main" style="text;html=1;strokeColor=none;fillColor=none;align=center;verticalAlign=middle;whiteSpace=wrap;rounded=0;fontSize=18;fontColor=#FFFFFF;" vertex="1" parent="1">
                    <mxGeometry x="965" y="283" width="60" height="30" as="geometry"/>
                </mxCell>
                <mxCell id="37" value="ForgotPasswordPageFactory" style="rounded=0;whiteSpace=wrap;html=1;fontSize=18;fontColor=#000000;strokeColor=#004C99;strokeWidth=4;fillColor=#FFFFFF;" vertex="1" parent="1">
                    <mxGeometry x="831" y="355" width="270" height="57" as="geometry"/>
                </mxCell>
                <mxCell id="38" value="Index" style="rounded=0;whiteSpace=wrap;html=1;fontSize=18;fontColor=#000000;strokeColor=#004C99;strokeWidth=4;fillColor=#FFFFFF;" vertex="1" parent="1">
                    <mxGeometry x="891" y="442" width="150" height="60" as="geometry"/>
                </mxCell>
                <mxCell id="39" value="DI" style="rounded=0;whiteSpace=wrap;html=1;fontSize=18;fontColor=#000000;strokeColor=#004C99;strokeWidth=4;fillColor=#FFFFFF;" vertex="1" parent="1">
                    <mxGeometry x="891" y="532" width="150" height="60" as="geometry"/>
                </mxCell>
                <mxCell id="40" value="Use Case Authentication" style="text;html=1;strokeColor=none;fillColor=none;align=center;verticalAlign=middle;whiteSpace=wrap;rounded=0;fontSize=18;" vertex="1" parent="1">
                    <mxGeometry x="1012" y="205" width="220" height="30" as="geometry"/>
                </mxCell>
            </root>
        </mxGraphModel>
    </diagram>
</mxfile>
